<?xml version="1.0" encoding="utf-8"?>
<!-- Generator: Adobe Illustrator 25.4.1, SVG Export Plug-In . SVG Version: 6.00 Build 0)  -->
<svg version="1.1" id="Capa_1" xmlns="http://www.w3.org/2000/svg" xmlns:xlink="http://www.w3.org/1999/xlink" x="0px" y="0px"
	 width="100px" height="100px" viewBox="0 0 100 100" style="enable-background:new 0 0 100 100;" xml:space="preserve">
<style type="text/css">
	.st0{fill:url(#SVGID_00000038404780109026180490000009890920606262771127_);}
	.st1{opacity:0.2;fill:#FFFFFF;}
	.st2{fill:#FFFFFF;}
	.st3{fill:none;stroke:#FFFFFF;stroke-width:2;stroke-miterlimit:10;}
</style>
<g>
	<defs>
		<rect id="SVGID_1_" x="-1099.569" y="-1557.168" width="1940" height="1300"/>
	</defs>
	<clipPath id="SVGID_00000073715125213543154170000015043395893174891146_">
		<use xlink:href="#SVGID_1_"  style="overflow:visible;"/>
	</clipPath>
	<g transform="matrix(1 0 0 1 0 0)" style="clip-path:url(#SVGID_00000073715125213543154170000015043395893174891146_);">
		
			<image style="overflow:visible;" width="2400" height="1600" xlink:href="../../../../Downloads/new_testament_footage_screenshots.jpeg"  transform="matrix(0.9154 0 0 0.9154 -1293.2916 -1721.8024)">
		</image>
	</g>
</g>
<linearGradient id="SVGID_00000001624105474880162460000007019638186319216768_" gradientUnits="userSpaceOnUse" x1="-129.5693" y1="-1369.1107" x2="-129.5693" y2="-257.1679">
	<stop  offset="0" style="stop-color:#2D8CFF;stop-opacity:0"/>
	<stop  offset="1" style="stop-color:#2D8CFF"/>
</linearGradient>
<rect x="-1099.569" y="-1369.111" style="fill:url(#SVGID_00000001624105474880162460000007019638186319216768_);" width="1940" height="1111.943"/>
<g>
	<circle class="st1" cx="-129.569" cy="-978.023" r="206.103"/>
	<g>
		<path class="st2" d="M-193.869-782.859l9.703,15.604c0.166,0.267,0.516,0.348,0.783,0.183l53.514-33.261
			c0.184-0.114,0.416-0.114,0.6,0l53.532,33.261c0.267,0.166,0.617,0.084,0.783-0.183l9.685-15.603
			c0.165-0.267,0.084-0.617-0.183-0.782l-63.817-39.66c-0.184-0.114-0.416-0.114-0.6,0l-63.816,39.66
			C-193.953-783.476-194.035-783.126-193.869-782.859z"/>
		<path class="st2" d="M-71.379-873.911v-61.534c0-0.382-0.31-0.692-0.692-0.692h-12.823c-0.382,0-0.692-0.31-0.692-0.692v-50.492
			c0-0.543,0.596-0.874,1.057-0.588l8.686,5.395c0.325,0.202,0.752,0.102,0.953-0.223l9.554-15.393
			c0.202-0.325,0.102-0.751-0.223-0.953l-32.02-19.894c-0.167-0.104-0.283-0.275-0.317-0.469l-30.993-177.33
			c-0.134-0.764-1.23-0.764-1.364,0l-30.994,177.333c-0.034,0.194-0.149,0.365-0.316,0.469l-32.01,19.891
			c-0.325,0.202-0.424,0.628-0.223,0.953l9.554,15.393c0.202,0.325,0.629,0.425,0.953,0.223l8.677-5.39
			c0.461-0.286,1.057,0.045,1.057,0.588v50.488c0,0.382-0.31,0.692-0.692,0.692h-12.823c-0.382,0-0.692,0.31-0.692,0.692v61.534
			c0,0.27-0.157,0.516-0.403,0.629l-113.161,52.133c-0.347,0.16-0.499,0.571-0.339,0.918l7.572,16.454
			c0.16,0.347,0.571,0.499,0.918,0.339l163.313-75.241c0.184-0.085,0.395-0.085,0.579,0l163.313,75.241
			c0.347,0.16,0.758,0.008,0.918-0.339l7.572-16.454c0.16-0.347,0.008-0.758-0.339-0.918l-113.161-52.133
			C-71.222-873.395-71.379-873.641-71.379-873.911z M-128.888-1083.497l8.567,49.032c0.103,0.589-0.539,1.023-1.047,0.707
			l-7.837-4.869c-0.224-0.139-0.507-0.139-0.731,0l-7.837,4.87c-0.508,0.316-1.15-0.118-1.047-0.707l8.567-49.033
			C-130.118-1084.261-129.022-1084.261-128.888-1083.497z M-153.725-1000.88l23.79-14.78c0.224-0.139,0.507-0.139,0.73,0
			l23.79,14.777c0.203,0.126,0.327,0.349,0.327,0.588v63.466c0,0.382-0.31,0.692-0.692,0.692h-47.579
			c-0.382,0-0.692-0.31-0.692-0.692v-63.463C-154.052-1000.531-153.928-1000.754-153.725-1000.88z M-168.259-883.533v-32.41
			c0-0.382,0.31-0.692,0.692-0.692h75.994c0.382,0,0.692,0.31,0.692,0.692v32.41c0,0.505-0.523,0.84-0.982,0.629l-37.418-17.238
			c-0.184-0.085-0.395-0.085-0.579,0l-37.418,17.238C-167.736-882.693-168.259-883.028-168.259-883.533z"/>
	</g>
</g>
<g>
	<circle class="st1" cx="1651.849" cy="-652.816" r="47.891"/>
	<g>
		<path class="st2" d="M1636.908-607.468l2.255,3.626c0.039,0.062,0.12,0.081,0.182,0.042l12.435-7.729
			c0.043-0.027,0.097-0.027,0.139,0l12.439,7.729c0.062,0.039,0.143,0.019,0.182-0.043l2.25-3.626
			c0.038-0.062,0.019-0.143-0.042-0.182l-14.829-9.215c-0.043-0.027-0.097-0.027-0.139,0l-14.829,9.215
			C1636.888-607.611,1636.869-607.53,1636.908-607.468z"/>
		<path class="st2" d="M1665.37-628.625v-14.298c0-0.089-0.072-0.161-0.161-0.161h-2.98c-0.089,0-0.161-0.072-0.161-0.161v-11.733
			c0-0.126,0.139-0.203,0.246-0.137l2.018,1.254c0.075,0.047,0.175,0.024,0.221-0.052l2.22-3.577
			c0.047-0.075,0.024-0.175-0.052-0.221l-7.44-4.623c-0.039-0.024-0.066-0.064-0.074-0.109l-7.202-41.205
			c-0.031-0.177-0.286-0.177-0.317,0l-7.202,41.206c-0.008,0.045-0.035,0.085-0.073,0.109l-7.438,4.622
			c-0.075,0.047-0.099,0.146-0.052,0.221l2.22,3.577c0.047,0.076,0.146,0.099,0.222,0.052l2.016-1.253
			c0.107-0.067,0.246,0.01,0.246,0.137v11.731c0,0.089-0.072,0.161-0.161,0.161h-2.98c-0.089,0-0.161,0.072-0.161,0.161v14.298
			c0,0.063-0.036,0.12-0.094,0.146l-26.294,12.114c-0.081,0.037-0.116,0.133-0.079,0.213l1.76,3.823
			c0.037,0.081,0.133,0.116,0.213,0.079l37.948-17.483c0.043-0.02,0.092-0.02,0.135,0l37.948,17.483
			c0.081,0.037,0.176,0.002,0.214-0.079l1.76-3.823c0.037-0.081,0.002-0.176-0.079-0.213l-26.294-12.114
			C1665.407-628.505,1665.37-628.562,1665.37-628.625z M1652.007-677.325l1.991,11.393c0.024,0.137-0.125,0.238-0.243,0.164
			l-1.821-1.131c-0.052-0.032-0.118-0.032-0.17,0l-1.821,1.132c-0.118,0.073-0.267-0.027-0.243-0.164l1.991-11.393
			C1651.721-677.502,1651.976-677.502,1652.007-677.325z M1646.236-658.128l5.528-3.434c0.052-0.032,0.118-0.032,0.17,0l5.528,3.434
			c0.047,0.029,0.076,0.081,0.076,0.137v14.747c0,0.089-0.072,0.161-0.161,0.161h-11.056c-0.089,0-0.161-0.072-0.161-0.161v-14.746
			C1646.16-658.047,1646.189-658.098,1646.236-658.128z M1642.859-630.86v-7.531c0-0.089,0.072-0.161,0.161-0.161h17.658
			c0.089,0,0.161,0.072,0.161,0.161v7.531c0,0.117-0.122,0.195-0.228,0.146l-8.694-4.005c-0.043-0.02-0.092-0.02-0.135,0
			l-8.695,4.005C1642.98-630.665,1642.859-630.743,1642.859-630.86z"/>
	</g>
</g>
<text transform="matrix(1 0 0 1 -609.2633 -660.1559)" class="st2" style="font-family:'Montserrat-Bold'; font-size:72px;">REUNIÓN SACRAMENTAL</text>
<text transform="matrix(1 0 0 1 -391.9907 -589.3293)" class="st2" style="font-family:'Montserrat-Light'; font-size:50px;">BARRIO MELIPILLA 2</text>
<path class="st2" d="M159.367-471.999h-577.875c-22.65,0-41.012-18.362-41.012-41.012v0c0-22.65,18.362-41.012,41.012-41.012
	h577.875c22.65,0,41.012,18.362,41.012,41.012v0C200.379-490.361,182.018-471.999,159.367-471.999z"/>
<polyline class="st3" points="-98.511,-348.514 -129.569,-318.02 -160.628,-348.514 "/>
<text transform="matrix(1 0 0 1 -423.5428 -501.6914)" style="fill:#2D8CFF; font-family:'Montserrat-Bold'; font-size:36px;">domingo 04 de diciembre 2022</text>
<line class="st3" x1="-129.569" y1="-318.02" x2="-129.57" y2="-404.868"/>
<polygon class="st2" points="84.4,63.049 51.133,95.712 51.132,0 48.866,0 48.867,95.711 15.6,63.049 14.013,64.667 50,100 
	85.987,64.667 "/>
</svg>
