<?xml version="1.0" encoding="utf-8"?>
<!-- Generator: Adobe Illustrator 25.4.1, SVG Export Plug-In . SVG Version: 6.00 Build 0)  -->
<svg version="1.1" id="Capa_1" xmlns="http://www.w3.org/2000/svg" xmlns:xlink="http://www.w3.org/1999/xlink" x="0px" y="0px"
	 width="100px" height="100px" viewBox="0 0 100 100" style="enable-background:new 0 0 100 100;" xml:space="preserve">
<style type="text/css">
	.st0{fill:url(#SVGID_00000017490058000734311990000015053062398966434461_);}
	.st1{opacity:0.2;fill:#FFFFFF;}
	.st2{fill:#FFFFFF;}
	.st3{fill:none;stroke:#FFFFFF;stroke-width:2;stroke-miterlimit:10;}
</style>
<g>
	<defs>
		<rect id="SVGID_1_" x="-2701.418" y="-853.388" width="1940" height="1300"/>
	</defs>
	<clipPath id="SVGID_00000157990183288498588780000004975956594707288730_">
		<use xlink:href="#SVGID_1_"  style="overflow:visible;"/>
	</clipPath>
	
		<g transform="matrix(1 0 0 1 0 -6.103516e-05)" style="clip-path:url(#SVGID_00000157990183288498588780000004975956594707288730_);">
		
			<image style="overflow:visible;" width="2400" height="1600" xlink:href="../../../../Downloads/new_testament_footage_screenshots.jpeg"  transform="matrix(0.9154 0 0 0.9154 -2895.1404 -1018.0228)">
		</image>
	</g>
</g>
<linearGradient id="SVGID_00000106833373111654187720000011706876394372907416_" gradientUnits="userSpaceOnUse" x1="-1731.4181" y1="-665.3311" x2="-1731.4181" y2="446.6117">
	<stop  offset="0" style="stop-color:#2D8CFF;stop-opacity:0"/>
	<stop  offset="1" style="stop-color:#2D8CFF"/>
</linearGradient>
<rect x="-2701.418" y="-665.331" style="fill:url(#SVGID_00000106833373111654187720000011706876394372907416_);" width="1940" height="1111.943"/>
<g>
	<circle class="st1" cx="-1731.418" cy="-274.243" r="206.103"/>
	<g>
		<path class="st2" d="M-1795.718-79.08l9.703,15.603c0.166,0.267,0.516,0.348,0.783,0.183l53.514-33.261
			c0.184-0.114,0.416-0.114,0.6,0l53.532,33.261c0.267,0.166,0.617,0.084,0.783-0.183l9.685-15.603
			c0.165-0.267,0.083-0.617-0.183-0.782l-63.817-39.66c-0.184-0.114-0.416-0.114-0.6,0l-63.817,39.66
			C-1795.802-79.697-1795.884-79.346-1795.718-79.08z"/>
		<path class="st2" d="M-1673.228-170.131v-61.534c0-0.382-0.31-0.692-0.692-0.692h-12.823c-0.382,0-0.692-0.31-0.692-0.692v-50.492
			c0-0.543,0.596-0.874,1.057-0.588l8.686,5.395c0.325,0.202,0.752,0.102,0.953-0.223l9.554-15.393
			c0.202-0.325,0.102-0.751-0.223-0.953l-32.02-19.894c-0.167-0.104-0.283-0.275-0.317-0.469l-30.993-177.33
			c-0.134-0.764-1.23-0.764-1.364,0l-30.994,177.333c-0.034,0.194-0.149,0.365-0.316,0.469l-32.01,19.891
			c-0.325,0.202-0.424,0.628-0.223,0.953l9.554,15.393c0.202,0.325,0.628,0.425,0.953,0.223l8.677-5.39
			c0.461-0.286,1.057,0.045,1.057,0.588v50.488c0,0.382-0.31,0.692-0.692,0.692h-12.823c-0.382,0-0.692,0.31-0.692,0.692v61.534
			c0,0.27-0.157,0.516-0.402,0.629l-113.161,52.133c-0.347,0.16-0.499,0.571-0.339,0.918l7.572,16.454
			c0.16,0.347,0.571,0.499,0.918,0.339l163.313-75.241c0.184-0.085,0.396-0.085,0.579,0l163.313,75.241
			c0.347,0.16,0.759,0.008,0.918-0.339l7.572-16.454c0.16-0.347,0.008-0.758-0.339-0.918l-113.161-52.133
			C-1673.071-169.616-1673.228-169.861-1673.228-170.131z M-1730.737-379.717l8.567,49.032c0.103,0.589-0.539,1.023-1.047,0.707
			l-7.837-4.869c-0.224-0.139-0.507-0.139-0.731,0l-7.837,4.87c-0.508,0.316-1.15-0.118-1.047-0.707l8.567-49.033
			C-1731.967-380.481-1730.871-380.481-1730.737-379.717z M-1755.574-297.1l23.79-14.78c0.224-0.139,0.507-0.139,0.73,0
			l23.79,14.777c0.203,0.126,0.327,0.349,0.327,0.588v63.466c0,0.382-0.31,0.692-0.692,0.692h-47.579
			c-0.382,0-0.692-0.31-0.692-0.692v-63.463C-1755.901-296.752-1755.777-296.974-1755.574-297.1z M-1770.108-179.753v-32.41
			c0-0.382,0.31-0.692,0.692-0.692h75.994c0.382,0,0.692,0.31,0.692,0.692v32.41c0,0.505-0.523,0.84-0.982,0.629l-37.418-17.238
			c-0.184-0.085-0.395-0.085-0.579,0l-37.418,17.238C-1769.585-178.913-1770.108-179.248-1770.108-179.753z"/>
	</g>
</g>
<g>
	<circle class="st1" cx="50" cy="50.963" r="47.891"/>
	<g>
		<path class="st2" d="M35.059,96.312l2.255,3.626c0.039,0.062,0.12,0.081,0.182,0.042l12.435-7.729
			c0.043-0.027,0.097-0.027,0.139,0l12.439,7.729c0.062,0.039,0.143,0.019,0.182-0.043l2.25-3.626
			c0.038-0.062,0.019-0.143-0.043-0.182L50.07,86.915c-0.043-0.027-0.097-0.027-0.139,0L35.102,96.13
			C35.04,96.169,35.021,96.25,35.059,96.312z"/>
		<path class="st2" d="M63.521,75.155V60.857c0-0.089-0.072-0.161-0.161-0.161h-2.98c-0.089,0-0.161-0.072-0.161-0.161V48.802
			c0-0.126,0.139-0.203,0.246-0.137l2.018,1.254c0.075,0.047,0.175,0.024,0.221-0.052l2.22-3.577
			c0.047-0.075,0.024-0.175-0.052-0.221l-7.44-4.623c-0.039-0.024-0.066-0.064-0.074-0.109L50.158,0.133
			c-0.031-0.178-0.286-0.178-0.317,0l-7.202,41.206c-0.008,0.045-0.035,0.085-0.074,0.109l-7.438,4.622
			c-0.075,0.047-0.099,0.146-0.052,0.221l2.22,3.577c0.047,0.075,0.146,0.099,0.222,0.052l2.016-1.253
			c0.107-0.067,0.246,0.01,0.246,0.137v11.731c0,0.089-0.072,0.161-0.161,0.161h-2.98c-0.089,0-0.161,0.072-0.161,0.161v14.298
			c0,0.063-0.037,0.12-0.094,0.146L10.091,87.415c-0.081,0.037-0.116,0.133-0.079,0.213l1.76,3.823
			c0.037,0.081,0.133,0.116,0.213,0.079l37.948-17.483c0.043-0.02,0.092-0.02,0.135,0L88.015,91.53
			c0.081,0.037,0.176,0.002,0.213-0.079l1.76-3.823c0.037-0.081,0.002-0.176-0.079-0.213L63.615,75.301
			C63.558,75.275,63.521,75.218,63.521,75.155z M50.158,26.455l1.991,11.393c0.024,0.137-0.125,0.238-0.243,0.164l-1.821-1.131
			c-0.052-0.032-0.118-0.032-0.17,0l-1.821,1.132c-0.118,0.073-0.267-0.027-0.243-0.164l1.991-11.393
			C49.872,26.277,50.127,26.277,50.158,26.455z M44.387,45.652l5.528-3.434c0.052-0.032,0.118-0.032,0.17,0l5.528,3.434
			c0.047,0.029,0.076,0.081,0.076,0.137v14.747c0,0.089-0.072,0.161-0.161,0.161H44.472c-0.089,0-0.161-0.072-0.161-0.161V45.789
			C44.311,45.733,44.34,45.681,44.387,45.652z M41.01,72.919v-7.531c0-0.089,0.072-0.161,0.161-0.161h17.658
			c0.089,0,0.161,0.072,0.161,0.161v7.531c0,0.117-0.122,0.195-0.228,0.146l-8.695-4.006c-0.043-0.02-0.092-0.02-0.135,0
			l-8.695,4.006C41.131,73.114,41.01,73.036,41.01,72.919z"/>
	</g>
</g>
<text transform="matrix(1 0 0 1 -2211.1121 43.6237)" class="st2" style="font-family:'Montserrat-Bold'; font-size:72px;">REUNIÓN SACRAMENTAL</text>
<text transform="matrix(1 0 0 1 -1993.8396 114.4503)" class="st2" style="font-family:'Montserrat-Light'; font-size:50px;">BARRIO MELIPILLA 2</text>
<path class="st2" d="M-1442.481,231.78h-577.875c-22.65,0-41.012-18.362-41.012-41.012v0c0-22.65,18.361-41.012,41.012-41.012
	h577.875c22.65,0,41.012,18.362,41.012,41.012v0C-1401.47,213.419-1419.831,231.78-1442.481,231.78z"/>
<polyline class="st3" points="-1700.359,355.265 -1731.418,385.76 -1762.477,355.265 "/>
<text transform="matrix(1 0 0 1 -2025.3916 202.0882)" style="fill:#2D8CFF; font-family:'Montserrat-Bold'; font-size:36px;">domingo 04 de diciembre 2022</text>
<line class="st3" x1="-1731.418" y1="385.76" x2="-1731.419" y2="298.911"/>
</svg>
